<svg width="136" height="78" viewBox="0 0 136 78" fill="none" xmlns="http://www.w3.org/2000/svg">
<path d="M28.2067 29.2705H29.7234V35.7512H35.3522V37.1099H28.2067V29.2705Z" fill="#60B51D"/>
<path d="M38.7522 29.2705H40.2689V37.1099H38.7522V29.2705Z" fill="#60B51D"/>
<path d="M43.6016 29.2705H45.2251L48.141 35.5247L51.1103 29.2705H52.7338L48.9314 37.1099H47.3506L43.6016 29.2705Z" fill="#60B51D"/>
<path d="M108.764 32.8933C108.764 47.4382 97.085 59.2294 82.6781 59.2294C68.2712 59.2294 56.5921 47.4382 56.5921 32.8933C56.5921 18.3484 68.2712 6.55724 82.6781 6.55724C97.085 6.55724 108.764 18.3484 108.764 32.8933Z" fill="#60B51D"/>
<path d="M61.8272 30.0072H64.067V36.7391H72.3008V38.6819H61.8272V30.0072Z" fill="white"/>
<path d="M75.517 38.6819V37.5672L83.53 29.0474H65.0055V27.1046H86.8423V28.3787L79.0501 36.7391H94.7346V38.6819H75.517Z" fill="white"/>
<path d="M95.6897 34.0479L90.09 27.1046H92.8346L96.8097 32.0095L100.769 27.1046H103.529L97.9295 34.0479V35.7681H95.6897V34.0479Z" fill="white"/>
<path d="M71.2047 33.8647H65.0057V31.9219H71.2047V33.8647Z" fill="white"/>
<path d="M61.8272 29.0303H64.034V27.1047H61.8272V29.0303Z" fill="white"/>
<path d="M95.7061 38.6747H97.9129V36.7492H95.7061V38.6747Z" fill="white"/>
<path d="M27.498 68.8033V64.6033H28.47V68.0113H30.576V68.8033H27.498ZM33.2191 68.8033V64.6033H34.1911V68.8033H33.2191ZM38.1878 66.4933H40.2038V67.2733H38.1878V66.4933ZM38.2598 68.8033H37.2878V64.6033H40.4618V65.3833H38.2598V68.8033ZM44.1139 66.2953H46.1359V67.0513H44.1139V66.2953ZM44.1859 68.0233H46.4719V68.8033H43.2199V64.6033H46.3939V65.3833H44.1859V68.0233ZM53.1445 68.8033V64.6033H53.9485L55.7365 67.5673H55.3105L57.0685 64.6033H57.8665L57.8785 68.8033H56.9665L56.9605 66.0013H57.1285L55.7245 68.3593H55.2865L53.8525 66.0013H54.0565V68.8033H53.1445ZM60.423 68.8033L62.295 64.6033H63.255L65.133 68.8033H64.113L62.577 65.0953H62.961L61.419 68.8033H60.423ZM61.359 67.9033L61.617 67.1653H63.777L64.041 67.9033H61.359ZM67.6687 68.8033V64.6033H69.5767C70.0327 64.6033 70.4347 64.6913 70.7827 64.8673C71.1307 65.0393 71.4027 65.2813 71.5987 65.5933C71.7947 65.9053 71.8927 66.2753 71.8927 66.7033C71.8927 67.1273 71.7947 67.4973 71.5987 67.8133C71.4027 68.1253 71.1307 68.3693 70.7827 68.5453C70.4347 68.7173 70.0327 68.8033 69.5767 68.8033H67.6687ZM68.6407 68.0053H69.5287C69.8087 68.0053 70.0507 67.9533 70.2547 67.8493C70.4627 67.7413 70.6227 67.5893 70.7347 67.3933C70.8507 67.1973 70.9087 66.9673 70.9087 66.7033C70.9087 66.4353 70.8507 66.2053 70.7347 66.0133C70.6227 65.8173 70.4627 65.6673 70.2547 65.5633C70.0507 65.4553 69.8087 65.4013 69.5287 65.4013H68.6407V68.0053ZM75.6197 66.2953H77.6417V67.0513H75.6197V66.2953ZM75.6917 68.0233H77.9777V68.8033H74.7257V64.6033H77.8997V65.3833H75.6917V68.0233ZM85.5443 66.2953H87.5663V67.0513H85.5443V66.2953ZM85.6163 68.0233H87.9023V68.8033H84.6503V64.6033H87.8243V65.3833H85.6163V68.0233ZM90.2237 68.8033L92.0957 64.6033H93.0557L94.9337 68.8033H93.9137L92.3777 65.0953H92.7617L91.2197 68.8033H90.2237ZM91.1597 67.9033L91.4177 67.1653H93.5777L93.8417 67.9033H91.1597ZM97.1995 68.8033V68.1733L99.7975 65.0413L99.9175 65.3953H97.2475V64.6033H100.781V65.2333L98.1895 68.3653L98.0695 68.0113H100.871V68.8033H97.1995ZM104.639 68.8033V67.0873L104.861 67.6753L103.013 64.6033H104.045L105.461 66.9613H104.867L106.289 64.6033H107.243L105.395 67.6753L105.611 67.0873V68.8033H104.639Z" fill="black"/>
</svg>
